# Blender v2.92.0 OBJ File: ''
# www.blender.org
mtllib Cube.mtl
o Cube
v -1.000000 -1.000000 1.000000
v -1.000000 1.000000 1.000000
v -1.000000 -1.000000 -1.000000
v -1.000000 1.000000 -1.000000
v 1.000000 -1.000000 1.000000
v 1.000000 1.000000 1.000000
v 1.000000 -1.000000 -1.000000
v 1.000000 1.000000 -1.000000
vt 0.311458 0.322222
vt 0.686458 0.322222
vt 0.686458 0.697222
vt 0.311458 0.697222
vt 0.686458 0.322222
vt 0.311458 0.322222
vt 0.686458 0.697222
vt 0.311458 0.697222
vt 0.686458 0.322222
vt 0.686458 0.697222
vt 0.311458 0.322222
vt 0.311458 0.697222
vn -1.0000 0.0000 0.0000
vn 0.0000 0.0000 -1.0000
vn 1.0000 0.0000 0.0000
vn 0.0000 0.0000 1.0000
vn 0.0000 -1.0000 0.0000
vn 0.0000 1.0000 0.0000
usemtl Material.001
s off
f 1/1/1 2/2/1 4/3/1 3/4/1
f 3/4/2 4/3/2 8/5/2 7/6/2
f 7/6/3 8/5/3 6/7/3 5/8/3
f 5/8/4 6/7/4 2/2/4 1/1/4
f 3/9/5 7/6/5 5/8/5 1/10/5
f 8/5/6 4/11/6 2/12/6 6/7/6
